<svg width="124" height="124" viewBox="0 0 124 124" fill="none" xmlns="http://www.w3.org/2000/svg">
<circle opacity="0.9" cx="62" cy="62" r="61" fill="#001533" stroke="#DDE3EB" stroke-width="2"/>
<path fill-rule="evenodd" clip-rule="evenodd" d="M95 62C95 62.8284 94.3284 63.5 93.5 63.5L74.5 63.5C73.6716 63.5 73 62.8284 73 62C73 61.1716 73.6716 60.5 74.5 60.5L93.5 60.5C94.3284 60.5 95 61.1716 95 62Z" fill="#DDE3EB"/>
<path fill-rule="evenodd" clip-rule="evenodd" d="M84.8672 71.0875C84.2666 70.5169 84.2423 69.5675 84.8129 68.9669L91.4314 62L84.8129 55.0331C84.2423 54.4325 84.2666 53.4831 84.8672 52.9125C85.4679 52.3419 86.4173 52.3663 86.9879 52.9669L95.5693 62L86.9879 71.0331C86.4173 71.6337 85.4679 71.6581 84.8672 71.0875Z" fill="#DDE3EB"/>
<path fill-rule="evenodd" clip-rule="evenodd" d="M28.5 62C28.5 61.1716 29.1716 60.5 30 60.5L49 60.5C49.8284 60.5 50.5 61.1716 50.5 62C50.5 62.8284 49.8284 63.5 49 63.5L30 63.5C29.1716 63.5 28.5 62.8284 28.5 62Z" fill="#DDE3EB"/>
<path fill-rule="evenodd" clip-rule="evenodd" d="M38.6328 52.9125C39.2334 53.4831 39.2577 54.4325 38.6871 55.0331L32.0686 62L38.6871 68.9669C39.2577 69.5675 39.2334 70.5169 38.6328 71.0875C38.0321 71.6581 37.0827 71.6337 36.5121 71.0331L27.9307 62L36.5121 52.9669C37.0827 52.3663 38.0321 52.3419 38.6328 52.9125Z" fill="#DDE3EB"/>
<path d="M55 74.5987V47.0468C55 46.0811 56.2333 45.6764 56.8055 46.4543L72.0039 67.1137C72.4532 67.7245 72.0859 68.5936 71.3347 68.6969L66.7547 69.3273C66.1146 69.4154 65.7249 70.0783 65.9591 70.6804L68.6838 77.687C68.865 78.1528 68.6744 78.6809 68.2375 78.9236L65.5204 80.4331C64.9842 80.731 64.3085 80.4803 64.0964 79.9046L61.5063 72.8743C61.2629 72.2136 60.4311 72.0047 59.9044 72.4719L56.6636 75.3468C56.0185 75.9191 55 75.4611 55 74.5987Z" fill="#DDE3EB" stroke="#DDE3EB" stroke-linecap="round"/>
</svg>
