<svg width="124" height="124" viewBox="0 0 124 124" fill="none" xmlns="http://www.w3.org/2000/svg">
<circle opacity="0.9" cx="62" cy="62" r="61" fill="#001533" stroke="#DDE3EB" stroke-width="2"/>
<path d="M91.4382 72.8542C89.5682 67.7542 88.4782 59.9242 83.3482 62.0742C82.6582 57.1442 78.2182 56.0342 75.9182 57.9342C75.3982 53.0442 68.1682 48.9342 64.4982 58.6442C62.9582 48.5142 58.7582 32.5942 58.7182 32.4742C58.2382 30.9342 57.2482 29.7842 55.4982 30.0342C52.6682 30.4542 52.7182 33.6642 52.8882 35.8742C55.3982 68.5842 56.3782 67.1542 57.1782 71.8142C57.1782 71.8142 57.3082 72.7842 56.9382 72.9142C56.1482 72.9942 55.5682 72.5742 54.0582 69.8442C50.7582 64.1342 43.8582 57.5342 37.9082 60.7142C34.8682 62.3542 40.1082 63.4242 44.0782 70.3842C47.6482 76.6142 47.9382 81.4942 54.2082 92.5142C58.4182 99.9342 60.3382 100.414 60.9582 103.894C61.0882 104.604 61.7182 105.104 62.4382 105.014C67.2082 104.374 74.1182 102.014 81.0882 97.5842C81.8182 97.1242 82.3482 96.3742 82.4882 95.5242C83.4482 89.3942 94.0282 80.0042 91.4382 72.8542Z" fill="#DDE3EB"/>
<path fill-rule="evenodd" clip-rule="evenodd" d="M85.5 34C85.5 34.8284 84.8284 35.5 84 35.5L65 35.5C64.1716 35.5 63.5 34.8284 63.5 34C63.5 33.1716 64.1716 32.5 65 32.5L84 32.5C84.8284 32.5 85.5 33.1716 85.5 34Z" fill="#DDE3EB"/>
<path fill-rule="evenodd" clip-rule="evenodd" d="M75.3672 43.0875C74.7666 42.5169 74.7423 41.5675 75.3129 40.9669L81.9314 34L75.3129 27.0331C74.7423 26.4325 74.7666 25.4831 75.3672 24.9125C75.9679 24.3419 76.9173 24.3663 77.4879 24.9669L86.0693 34L77.4879 43.0331C76.9173 43.6337 75.9679 43.6581 75.3672 43.0875Z" fill="#DDE3EB"/>
<path fill-rule="evenodd" clip-rule="evenodd" d="M26.5 34C26.5 33.1716 27.1716 32.5 28 32.5H47C47.8284 32.5 48.5 33.1716 48.5 34C48.5 34.8284 47.8284 35.5 47 35.5H28C27.1716 35.5 26.5 34.8284 26.5 34Z" fill="#DDE3EB"/>
<path fill-rule="evenodd" clip-rule="evenodd" d="M36.6328 24.9125C37.2334 25.4831 37.2577 26.4325 36.6871 27.0331L30.0686 34L36.6871 40.9669C37.2577 41.5675 37.2334 42.5169 36.6328 43.0875C36.0321 43.6581 35.0827 43.6337 34.5121 43.0331L25.9307 34L34.5121 24.9669C35.0827 24.3663 36.0321 24.3419 36.6328 24.9125Z" fill="#DDE3EB"/>
</svg>
